<?xml version="1.0" encoding="utf-8"?>
<!-- Generator: Adobe Illustrator 27.5.0, SVG Export Plug-In . SVG Version: 6.00 Build 0)  -->
<svg version="1.1" id="Layer_1" xmlns="http://www.w3.org/2000/svg" xmlns:xlink="http://www.w3.org/1999/xlink" x="0px" y="0px"
	 viewBox="0 0 937 937" style="enable-background:new 0 0 937 937;" xml:space="preserve">
<style type="text/css">
	.st0{fill:#003865;}
	.st1{clip-path:url(#SVGID_00000069393759957442301810000014069181268233578679_);}
	.st2{fill:url(#SVGID_00000168108628630020568310000009943737966016485303_);}
	.st3{fill:#EE3D8B;}
	.st4{fill:#FFFFFF;}
	.st5{clip-path:url(#SVGID_00000175324756591751390230000008322553990520205978_);}
	.st6{fill:url(#SVGID_00000057849450706667496890000009105793073707905710_);}
</style>
<g id="uuid-e75a216e-d395-4376-a96b-3da3b2b17ec7">
	<circle class="st0" cx="468.5" cy="468.5" r="468.5"/>
	<g>
		<defs>
			<circle id="SVGID_1_" cx="468.5" cy="468.5" r="468.5"/>
		</defs>
		<clipPath id="SVGID_00000145055220753869084200000017141461342769271203_">
			<use xlink:href="#SVGID_1_"  style="overflow:visible;"/>
		</clipPath>
		<g style="clip-path:url(#SVGID_00000145055220753869084200000017141461342769271203_);">
			
				<linearGradient id="SVGID_00000068668210911457285070000016690710829187666822_" gradientUnits="userSpaceOnUse" x1="147.1701" y1="92.3362" x2="1386.806" y2="92.3362" gradientTransform="matrix(1 0 0 -1 2.112267e-03 935.8787)">
				<stop  offset="0" style="stop-color:#00A0E6"/>
				<stop  offset="0.31" style="stop-color:#4173CE"/>
				<stop  offset="0.59" style="stop-color:#764FBC"/>
				<stop  offset="0.72" style="stop-color:#8B42B5"/>
			</linearGradient>
			<polygon style="fill:url(#SVGID_00000068668210911457285070000016690710829187666822_);" points="147.2,1058.3 981.7,223.7 
				1386.8,628.8 552.2,1463.4 			"/>
		</g>
	</g>
	<path class="st3" d="M524.9,656.3c-17.9,13.5-36.8,12.8-50.2,4.3c-1.8-1.2-4.2,0.1-4.2,2.3v76c0,1.5-1.2,2.7-2.7,2.7H243.4
		c-1.5,0-2.7-1.2-2.7-2.7V514.5c0-1.5,1.2-2.7,2.7-2.7h77.4c2.2,0,3.5,2.5,2.2,4.3c-9.5,13.2-12.9,30.3,1.8,50.7
		c1,1.3,2.1,2.5,3.4,3.4c32.5,22.7,67.3,0,67.3-30.8c0-8.7-2.8-16.7-7.5-23.3c-1.3-1.8,0.1-4.3,2.3-4.3h77.4c1.5,0,2.7,1.2,2.7,2.7
		v76c0,2.2,2.4,3.4,4.2,2.3c6.2-3.9,13.5-6.1,21.3-6.1c31.4,0,54.3,36.1,29.6,69C525.3,655.8,525.1,656.1,524.9,656.3L524.9,656.3z"
		/>
	<path class="st4" d="M623.6,483.1c0.7,9-1.6,17.4-6,24.4c-1.2,1.8,0.1,4.2,2.3,4.2h76c1.5,0,2.7,1.2,2.7,2.7v224.4
		c0,1.5-1.2,2.7-2.7,2.7H471.5c-1.5,0-2.7-1.2-2.7-2.7v-77.4c0-2.2,2.5-3.5,4.3-2.2c13.5,9.7,33.3,11.2,52.3-3
		c0.2-0.2,0.5-0.4,0.6-0.6c24.6-32.9,1.7-69-29.7-69c-8.7,0-16.7,2.8-23.3,7.5c-1.8,1.3-4.3-0.1-4.3-2.3v-77.4
		c0-1.5,1.2-2.7,2.7-2.7h76c2.2,0,3.4-2.4,2.3-4.2c-3.9-6.2-6.1-13.5-6.1-21.3c0-23,19.4-41.5,42.7-40
		C606.1,447.6,622.1,463.5,623.6,483.1L623.6,483.1z"/>
	<path class="st4" d="M318.4,527.3c-1.6-8.3-0.5-16.4,2.6-23.6c0.9-2-0.8-4.1-2.9-3.8l-75.1,11.4c-1.5,0.2-2.9-0.8-3.1-2.3
		l-33.6-221.8c-0.2-1.5,0.8-2.9,2.3-3.1l221.8-33.6c1.5-0.2,2.9,0.8,3.1,2.3l11.6,76.6c0.3,2.2-2,3.8-4,2.8
		c-7.7-3.9-16.7-5.4-25.9-3.6c-19.9,3.9-34,22.6-32.2,42.8c2.1,23.2,23.2,39.5,45.9,36.1c8.6-1.3,16.1-5.3,21.9-10.9
		c1.6-1.5,4.3-0.6,4.6,1.6l11.6,76.5c0.2,1.5-0.8,2.9-2.3,3.1L389.7,489c-2.1,0.3-3,2.9-1.6,4.5c4.8,5.5,8.1,12.4,9.2,20.1
		c3.4,22.7-12.9,43.8-36.1,45.9C340.9,561.4,322.2,547.3,318.4,527.3L318.4,527.3z"/>
	<path class="st3" d="M451.4,296.7c8.2-1.8,16.4-1,23.6,1.9c2,0.8,4.1-0.9,3.7-3l-13.4-74.8c-0.3-1.5,0.7-2.9,2.2-3.2L688.3,178
		c1.5-0.3,2.9,0.7,3.2,2.2L731.2,401c0.3,1.5-0.7,2.9-2.2,3.2l-76.2,13.7c-2.2,0.4-3.9-1.9-2.9-3.9c3.7-7.8,5-16.8,2.9-25.9
		c-4.4-19.8-23.5-33.4-43.7-31c-23.1,2.7-38.9,24.3-34.8,46.9c1.5,8.6,5.7,16,11.5,21.6c1.6,1.5,0.7,4.2-1.5,4.6l-76.2,13.7
		c-1.5,0.3-2.9-0.7-3.2-2.2l-13.4-74.8c-0.4-2.1-3-3-4.5-1.5c-5.4,4.9-12.2,8.4-19.9,9.8c-22.6,4.1-44.2-11.7-46.9-34.9
		C417.9,320.2,431.5,301.1,451.4,296.7L451.4,296.7z"/>
</g>
<g id="uuid-bc1eae09-3964-49ec-8388-6ae74e67906d">
	<g>
		<defs>
			<circle id="SVGID_00000008830338673341665840000002575460636860696498_" cx="-581.9" cy="468.5" r="468.5"/>
		</defs>
		<clipPath id="SVGID_00000047061861582924906990000011714989869357200568_">
			<use xlink:href="#SVGID_00000008830338673341665840000002575460636860696498_"  style="overflow:visible;"/>
		</clipPath>
		<g style="clip-path:url(#SVGID_00000047061861582924906990000011714989869357200568_);">
			
				<linearGradient id="SVGID_00000116932256181883475880000018258538954601794742_" gradientUnits="userSpaceOnUse" x1="-903.2087" y1="92.3504" x2="336.4272" y2="92.3504" gradientTransform="matrix(1 0 0 -1 1.003898e-04 935.8937)">
				<stop  offset="0" style="stop-color:#00A0E6"/>
				<stop  offset="0.31" style="stop-color:#4173CE"/>
				<stop  offset="0.59" style="stop-color:#764FBC"/>
				<stop  offset="0.72" style="stop-color:#8B42B5"/>
			</linearGradient>
			<polygon style="fill:url(#SVGID_00000116932256181883475880000018258538954601794742_);" points="-903.2,1058.3 -68.6,223.7 
				336.4,628.8 -498.1,1463.4 			"/>
		</g>
	</g>
</g>
</svg>
